<svg height="512" viewBox="0 0 512 512" width="512" xmlns="http://www.w3.org/2000/svg" style="fill: white"><path d="m216 480h88v16h-88z"/><path d="m448 176v-152a8 8 0 0 0 -8-8h-64a8 8 0 0 0 -8 8v120h-112v-120a8 8 0 0 0 -8-8h-64a8 8 0 0 0 -8 8v64h16v-56h48v120a8 8 0 0 0 8 8h128a8 8 0 0 0 8-8v-120h48v144z"/><path d="m232 448h72v16h-72z"/><path d="m208 185.371v-40.246a39.9 39.9 0 0 0 -17.812-33.281l-30.188-20.125v-51.719a24.027 24.027 0 0 0 -24-24h-48a24.027 24.027 0 0 0 -24 24v51.719l-30.188 20.125a39.9 39.9 0 0 0 -17.812 33.281v40.246a23.874 23.874 0 0 0 7.031 16.977 7.991 7.991 0 0 1 0 11.308 23.858 23.858 0 0 0 -7.031 16.973v2.742a23.874 23.874 0 0 0 7.031 16.977 7.991 7.991 0 0 1 0 11.308 23.858 23.858 0 0 0 -7.031 16.973v2.742a23.874 23.874 0 0 0 7.031 16.977 7.991 7.991 0 0 1 0 11.308 23.858 23.858 0 0 0 -7.031 16.973v2.742a23.874 23.874 0 0 0 7.031 16.977 7.991 7.991 0 0 1 0 11.308 23.858 23.858 0 0 0 -7.031 16.973v2.742a23.874 23.874 0 0 0 7.031 16.977 7.991 7.991 0 0 1 0 11.308 23.858 23.858 0 0 0 -7.031 16.973v33.371a40.047 40.047 0 0 0 40 40h112a40.047 40.047 0 0 0 40-40v-33.371a23.874 23.874 0 0 0 -7.031-16.977 7.991 7.991 0 0 1 0-11.308 23.858 23.858 0 0 0 7.031-16.973v-2.742a23.874 23.874 0 0 0 -7.031-16.977 7.991 7.991 0 0 1 0-11.308 23.858 23.858 0 0 0 7.031-16.973v-2.742a23.874 23.874 0 0 0 -7.031-16.977 7.991 7.991 0 0 1 0-11.308 23.858 23.858 0 0 0 7.031-16.973v-2.742a23.874 23.874 0 0 0 -7.031-16.977 7.991 7.991 0 0 1 0-11.308 23.858 23.858 0 0 0 7.031-16.973v-2.742a23.874 23.874 0 0 0 -7.031-16.977 7.991 7.991 0 0 1 0-11.308 23.858 23.858 0 0 0 7.031-16.973zm-128-145.371a8.008 8.008 0 0 1 8-8h48a8.008 8.008 0 0 1 8 8v24h-64zm112 145.371a7.952 7.952 0 0 1 -2.344 5.656 24 24 0 0 0 0 33.942 7.968 7.968 0 0 1 2.344 5.66v2.742a7.952 7.952 0 0 1 -2.344 5.656 24 24 0 0 0 0 33.942 7.968 7.968 0 0 1 2.344 5.66v2.742a7.952 7.952 0 0 1 -2.344 5.656 24 24 0 0 0 0 33.942 7.968 7.968 0 0 1 2.344 5.66v2.742a7.952 7.952 0 0 1 -2.344 5.656 24 24 0 0 0 0 33.942 7.968 7.968 0 0 1 2.344 5.66v2.742a7.952 7.952 0 0 1 -2.344 5.656 24 24 0 0 0 0 33.942 7.968 7.968 0 0 1 2.344 5.66v33.371a24.027 24.027 0 0 1 -24 24h-112a24.027 24.027 0 0 1 -24-24v-33.371a7.952 7.952 0 0 1 2.344-5.656 24 24 0 0 0 0-33.942 7.968 7.968 0 0 1 -2.344-5.66v-2.742a7.952 7.952 0 0 1 2.344-5.656 24 24 0 0 0 0-33.942 7.968 7.968 0 0 1 -2.344-5.66v-2.742a7.952 7.952 0 0 1 2.344-5.656 24 24 0 0 0 0-33.942 7.968 7.968 0 0 1 -2.344-5.66v-2.742a7.952 7.952 0 0 1 2.344-5.656 24 24 0 0 0 0-33.942 7.968 7.968 0 0 1 -2.344-5.66v-2.742a7.952 7.952 0 0 1 2.344-5.656 24 24 0 0 0 0-33.942 7.968 7.968 0 0 1 -2.344-5.66v-40.246a23.936 23.936 0 0 1 10.688-19.969l33.75-22.5a8 8 0 0 0 3.562-6.656v-16h64v16a8 8 0 0 0 3.562 6.656l33.75 22.5a23.936 23.936 0 0 1 10.688 19.969z"/><path d="m74.935 119.748h14.262v16h-14.262z" transform="matrix(.832 -.555 .555 .832 -57.079 66.977)"/><path d="m64 149.406 4.227-2.816-8.875-13.313-4.227 2.817a15.963 15.963 0 0 0 -7.125 13.312v34.594h16z"/><path d="m56 200h112v16h-112z"/><path d="m56 248h112v16h-112z"/><path d="m56 296h112v16h-112z"/><path d="m56 344h112v16h-112z"/><path d="m56 392h112v16h-112z"/><path d="m400 192c-47.7 0-96 13.738-96 40 0 .5.023.973.055 1.441l.112-.007c.02.3.068.586.1.878l-.174.032 15.923 254.156a8 8 0 0 0 7.984 7.5h144a8 8 0 0 0 7.984-7.5l15.922-254.16c.008-.168.039-.735.039-.9.032-.468.055-.941.055-1.441 0-26.261-48.3-39.999-96-39.999zm0 16c48.094 0 80 14.445 80 24s-31.906 24-80 24-80-14.445-80-24 31.906-24 80-24zm-68.5 208h136.994l-1 16h-134.989zm-1-16-1-16h141l-1 16zm-2.007-32-1-16h145.007l-1 16zm-2.007-32-1-16h149.022l-1 16zm-2.007-32-3.011-48.013c18.307 10.569 48.526 16.013 78.532 16.013s60.208-5.441 78.518-16l-3.007 48zm11.038 176-2.007-32h132.98l-2 32z"/></svg>
