<?xml version="1.0" encoding="iso-8859-1"?>
<!-- Generator: Adobe Illustrator 19.0.0, SVG Export Plug-In . SVG Version: 6.00 Build 0)  -->
<svg version="1.1" id="Capa_1" xmlns="http://www.w3.org/2000/svg" xmlns:xlink="http://www.w3.org/1999/xlink" x="0px" y="0px"
	 viewBox="0 0 480 480" style="enable-background:new 0 0 480 480;" xml:space="preserve">
<g>
	<g>
		<path d="M456,240H264v-16h40c4.418,0,8-3.582,8-8v-32c0-4.418-3.582-8-8-8h-8v-24h-16v24h-16v-16c0-4.418-3.582-8-8-8h-8V64
			c0-17.673-14.327-32-32-32s-32,14.327-32,32v16h16V64c0-8.837,7.163-16,16-16s16,7.163,16,16v88h-8c-4.418,0-8,3.582-8,8v16h-16
			v-24h-16v24h-16v-25.136c17.112-4.418,27.402-21.872,22.984-38.984S169.112,84.478,152,88.896s-27.402,21.872-22.984,38.984
			c2.91,11.272,11.712,20.074,22.984,22.984V176h-16c-4.418,0-8,3.582-8,8v32c0,4.418,3.582,8,8,8h16v16H24
			c-13.255,0-24,10.745-24,24s10.745,24,24,24h17.44l30.72,153.6c0.76,3.725,4.038,6.401,7.84,6.4h320
			c3.802,0.001,7.08-2.675,7.84-6.4L438.56,288H456c13.255,0,24-10.745,24-24S469.255,240,456,240z M264,192h32v16h-32V192z
			 M232,168h16v72h-16V168z M144,120c0-8.837,7.163-16,16-16s16,7.163,16,16s-7.163,16-16,16S144,128.837,144,120z M144,208v-16h72
			v16H144z M216,224v16h-48v-16H216z M393.448,432H86.552L57.76,288h364.48L393.448,432z M456,272H24c-4.418,0-8-3.582-8-8
			s3.582-8,8-8h432c4.418,0,8,3.582,8,8S460.418,272,456,272z"/>
	</g>
</g>
<g>
	<g>
		<rect x="90.916" y="343.548" transform="matrix(0.9839 -0.1788 0.1788 0.9839 -64.9209 23.6801)" width="15.992" height="56.92"/>
	</g>
</g>
<g>
	<g>
		<rect x="81.453" y="311.873" transform="matrix(0.9839 -0.1786 0.1786 0.9839 -55.7237 21.1258)" width="16" height="16.264"/>
	</g>
</g>
<g>
</g>
<g>
</g>
<g>
</g>
<g>
</g>
<g>
</g>
<g>
</g>
<g>
</g>
<g>
</g>
<g>
</g>
<g>
</g>
<g>
</g>
<g>
</g>
<g>
</g>
<g>
</g>
<g>
</g>
</svg>
