<svg height="480pt" viewBox="0 0 480 480" width="480pt" xmlns="http://www.w3.org/2000/svg"><path d="m448 0h-416c-17.671875 0-32 14.328125-32 32v440c0 4.417969 3.582031 8 8 8h48c4.417969 0 8-3.582031 8-8v-24h352v24c0 4.417969 3.582031 8 8 8h48c4.417969 0 8-3.582031 8-8v-440c0-17.671875-14.328125-32-32-32zm-400 464h-32v-16h32zm416 0h-32v-16h32zm0-32h-448v-64c0-8.835938 7.164062-16 16-16h416c8.835938 0 16 7.164062 16 16zm0-91.550781c-4.84375-2.878907-10.367188-4.417969-16-4.449219h-416c-5.632812.03125-11.15625 1.570312-16 4.449219v-180.449219c0-8.835938 7.164062-16 16-16h18.167969c.484375 4.480469 1.054687 8.957031 1.703125 13.433594.535156 3.636718 3.476562 6.441406 7.136718 6.796875 25.542969 2.511719 51.273438 3.761719 76.992188 3.761719s51.449219-1.25 76.992188-3.761719c3.660156-.355469 6.601562-3.160157 7.136718-6.796875.648438-4.472656 1.21875-8.949219 1.703125-13.433594h36.335938c.484375 4.480469 1.054687 8.957031 1.703125 13.433594.535156 3.636718 3.476562 6.441406 7.136718 6.796875 25.542969 2.511719 51.273438 3.761719 76.992188 3.761719s51.449219-1.25 76.992188-3.761719c3.660156-.355469 6.601562-3.160157 7.136718-6.796875.648438-4.472656 1.21875-8.949219 1.703125-13.433594h18.167969c8.835938 0 16 7.164062 16 16zm-397.144531-281.34375c46.003906-4.128907 92.285156-4.128907 138.289062 0 3.816407 29.808593 3.816407 59.980469 0 89.789062-46.003906 4.128907-92.285156 4.128907-138.289062 0-3.816407-29.808593-3.816407-59.980469 0-89.789062zm208 0c46.003906-4.128907 92.285156-4.128907 138.289062 0 3.816407 29.808593 3.816407 59.980469 0 89.789062-46.003906 4.128907-92.285156 4.128907-138.289062 0-3.816407-29.808593-3.816407-59.980469 0-89.789062zm189.144531 73.34375c-4.84375-2.878907-10.367188-4.417969-16-4.449219h-16.800781c1.695312-25.847656.671875-51.800781-3.054688-77.433594-.535156-3.636718-3.476562-6.441406-7.136719-6.796875-51.207031-5.015625-102.777343-5.015625-153.984374 0-3.65625.355469-6.601563 3.160157-7.136719 6.796875-3.734375 25.632813-4.769531 51.585938-3.085938 77.433594h-33.601562c1.695312-25.847656.671875-51.800781-3.054688-77.433594-.535156-3.636718-3.476562-6.441406-7.136719-6.796875-51.207031-5.015625-102.777343-5.015625-153.984374 0-3.65625.355469-6.601563 3.160157-7.136719 6.796875-3.734375 25.632813-4.769531 51.585938-3.085938 77.433594h-16.800781c-5.632812.03125-11.15625 1.570312-16 4.449219v-100.449219c0-8.835938 7.164062-16 16-16h416c8.835938 0 16 7.164062 16 16zm0 0"/><path d="m32 208h16v112h-16zm0 0"/><path d="m32 176h16v16h-16zm0 0"/></svg>