<svg id="Layer_3" enable-background="new 0 0 64 64" height="512" viewBox="0 0 64 64" width="512" xmlns="http://www.w3.org/2000/svg"><path d="m62 33h-5v-3c0-.553-.448-1-1-1h-1v-3c0-.553-.448-1-1-1h-3v2h2v2h-8v-2h2v-2h-3c-.552 0-1 .447-1 1v3h-1c-.552 0-1 .447-1 1v3h-2v-3c0-.553-.448-1-1-1h-14c-.552 0-1 .447-1 1v3h-2v-3c0-.553-.448-1-1-1h-12c-.552 0-1 .447-1 1v3h-2v-9c0-1.103.897-2 2-2s2 .897 2 2v2h2v-2c0-2.206-1.794-4-4-4s-4 1.794-4 4v9h-1c-.552 0-1 .447-1 1v4c0 .553.448 1 1 1h1v23c0 .553.448 1 1 1h56c.552 0 1-.447 1-1v-23h1c.552 0 1-.447 1-1v-4c0-.553-.448-1-1-1zm-19-2h12v2h-12zm-18 0h12v2h-12zm-16 0h10v2h-10zm-4 8h26v22h-26zm54 22h-26v-22h26zm2-24h-58v-2h58z"/><path d="m28 49h-20c-.552 0-1 .447-1 1v8c0 .553.448 1 1 1h20c.552 0 1-.447 1-1v-8c0-.553-.448-1-1-1zm-1 2v2h-18v-2zm-18 6v-2h18v2z"/><path d="m36 59h20c.552 0 1-.447 1-1v-8c0-.553-.448-1-1-1h-20c-.552 0-1 .447-1 1v8c0 .553.448 1 1 1zm1-2v-2h18v2zm18-6v2h-18v-2z"/><path d="m28 41h-20c-.552 0-1 .447-1 1v4c0 .553.448 1 1 1h20c.552 0 1-.447 1-1v-4c0-.553-.448-1-1-1zm-11 2h2v2h-2zm-2 2h-2v-2h2zm6-2h2v2h-2zm-12 0h2v2h-2zm18 2h-2v-2h2z"/><path d="m36 47h20c.552 0 1-.447 1-1v-4c0-.553-.448-1-1-1h-20c-.552 0-1 .447-1 1v4c0 .553.448 1 1 1zm11-2h-2v-2h2zm2-2h2v2h-2zm-6 2h-2v-2h2zm12 0h-2v-2h2zm-18-2h2v2h-2z"/><path d="m62 1h-60c-.552 0-1 .447-1 1v4c0 .553.448 1 1 1h43v2h-3c-.265 0-.52.105-.707.293l-6 6c-.286.286-.372.716-.217 1.09s.52.617.924.617h26c.404 0 .769-.243.924-.617s.069-.804-.217-1.09l-6-6c-.187-.188-.442-.293-.707-.293h-3v-2h9c.552 0 1-.447 1-1v-4c0-.553-.448-1-1-1zm-2.414 14h-21.172l4-4h13.172zm-8.586-6h-4v-2h4zm10-4h-58v-2h58z"/></svg>