<svg height="480pt" viewBox="0 0 480 480.00756" width="480pt" xmlns="http://www.w3.org/2000/svg"><path d="m472.003906 320.007812h-8v-280c0-13.253906-10.746094-24-24-24h-65.472656c-3.339844-9.585937-12.378906-16.007812-22.527344-16.007812-10.148437 0-19.1875 6.421875-22.527344 16.007812h-26.945312c-3.339844-9.585937-12.378906-16.007812-22.527344-16.007812-10.148437 0-19.1875 6.421875-22.527344 16.007812h-217.472656c-13.253906 0-24 10.746094-24 24v280h-8c-4.417968 0-7.99999975 3.582032-7.99999975 8v32c0 4.417969 3.58203175 8 7.99999975 8h8v48h-8c-4.417968 0-7.99999975 3.582032-7.99999975 8v32c0 4.417969 3.58203175 8 7.99999975 8h8v16h16v-16h416v16h16v-16h8c4.417969 0 8-3.582031 8-8v-32c0-4.417968-3.582031-8-8-8h-8v-48h8c4.417969 0 8-3.582031 8-8v-32c0-4.417968-3.582031-8-8-8zm-128-288h12.6875l-10.34375 10.34375c-1.5 1.5-2.34375 3.535157-2.34375 5.65625v10.457032l-26.039062 9.765625-29.960938-9.992188v-6.917969l13.65625-13.65625c1.5-1.5 2.34375-3.535156 2.34375-5.65625zm-120 72v-10.457031l56.160156-21.054687 13.984376 4.664062-8.960938 3.351563c-3.121094 1.171875-5.1875 4.160156-5.183594 7.496093v16zm72-10.457031 22.273438-8.351562 25.726562 8.578125v10.230468h-48zm58.527344-13.136719-12.449219-4.140624 10.082031-3.777344 63.839844 21.28125v10.230468h-56v-16c0-3.445312-2.203125-6.503906-5.472656-7.59375zm-322.527344-40.40625c0-4.417968 3.582032-8 8-8h244.6875l-10.34375 10.34375c-1.5 1.5-2.34375 3.535157-2.34375 5.65625v10.457032l-58.816406 22.046875c-3.121094 1.171875-5.1875 4.160156-5.183594 7.496093v24c0 4.417969 3.582032 8 8 8h208c4.417969 0 8-3.582031 8-8v-24c0-3.445312-2.203125-6.503906-5.472656-7.59375l-66.527344-22.175781v-6.917969l13.65625-13.65625c1.5-1.5 2.34375-3.535156 2.34375-5.65625h64c4.417969 0 8 3.582032 8 8v280h-289.472656c3.078125-8.261718 1.21875-17.554687-4.800781-24 6.390625-7.003906 8.035156-17.121093 4.195312-25.785156-3.84375-8.667968-12.441406-14.246094-21.921875-14.214844h-64c-9.484375-.042968-18.097656 5.53125-21.945312 14.199219-3.851563 8.667969-2.207032 18.792969 4.183594 25.800781-6.015626 6.445313-7.875 15.738282-4.796876 24h-17.441406zm32 240c0-4.417968 3.582032-8 8-8h64c4.417969 0 8 3.582032 8 8 0 4.417969-3.582031 8-8 8h-64c-4.417968 0-8-3.582031-8-8zm0 32c0-4.417968 3.582032-8 8-8h64c4.417969 0 8 3.582032 8 8 0 4.417969-3.582031 8-8 8h-64c-4.417968 0-8-3.582031-8-8zm400 136h-448v-16h448zm-16-32h-416v-48h416zm16-64h-448v-16h448zm0 0"/></svg>